<?xml version="1.0" encoding="UTF-8" standalone="no"?>
<svg
   xmlns:sketch="http://www.bohemiancoding.com/sketch/ns"
   xmlns:dc="http://purl.org/dc/elements/1.1/"
   xmlns:cc="http://creativecommons.org/ns#"
   xmlns:rdf="http://www.w3.org/1999/02/22-rdf-syntax-ns#"
   xmlns:svg="http://www.w3.org/2000/svg"
   xmlns="http://www.w3.org/2000/svg"
   xmlns:sodipodi="http://sodipodi.sourceforge.net/DTD/sodipodi-0.dtd"
   xmlns:inkscape="http://www.inkscape.org/namespaces/inkscape"
   class="logo"
   height="74.921371"
   version="1.1"
   viewBox="0 0 83.943207 74.921371"
   width="83.943207"
   id="svg20"
   sodipodi:docname="diesel.svg"
   inkscape:version="1.0.1 (3bc2e813f5, 2020-09-07)">
  <metadata
     id="metadata26">
    <rdf:RDF>
      <cc:Work
         rdf:about="">
        <dc:format>image/svg+xml</dc:format>
        <dc:type
           rdf:resource="http://purl.org/dc/dcmitype/StillImage" />
      </cc:Work>
    </rdf:RDF>
  </metadata>
  <defs
     id="defs24" />
  <sodipodi:namedview
     pagecolor="#ffffff"
     bordercolor="#666666"
     borderopacity="1"
     objecttolerance="10"
     gridtolerance="10"
     guidetolerance="10"
     inkscape:pageopacity="0"
     inkscape:pageshadow="2"
     inkscape:window-width="1366"
     inkscape:window-height="743"
     id="namedview22"
     showgrid="false"
     inkscape:zoom="3.1203209"
     inkscape:cx="91.9836"
     inkscape:cy="31.848962"
     inkscape:window-x="0"
     inkscape:window-y="-12"
     inkscape:window-maximized="1"
     inkscape:current-layer="svg20" />
  <g
     fill-rule="evenodd"
     fill="none"
     id="Page-1"
     sketch:type="MSPage"
     stroke-width="1"
     stroke="none"
     transform="translate(-0.01453055,-0.51902563)">
    <g
       id="Desktop-HD"
       sketch:type="MSArtboardGroup"
       transform="translate(-119,-30)">
      <g
         id="logo"
         sketch:type="MSLayerGroup"
         transform="translate(119,31)">
        <g
           id="mark"
           sketch:type="MSShapeGroup"
           transform="translate(0.130247,0.315216)">
          <g
             id="drop"
             transform="translate(72.929204,51.710843)">
            <path
               d="m 9.7807837,7.7398798 c 0,2.4706132 -1.9945297,4.4731812 -4.4552253,4.4731812 -2.4606956,0 -4.4552253,-2.002568 -4.4552253,-4.4731812 0,-2.4706129 4.4552253,-7.344006 4.4552253,-7.344006 0,0 4.4552253,4.8733931 4.4552253,7.344006"
               fill="#fdbd41"
               id="drop-fill" />
            <path
               d="m 9.7807837,7.7398798 c 0,2.4706132 -1.9945297,4.4731812 -4.4552253,4.4731812 -2.4606956,0 -4.4552253,-2.002568 -4.4552253,-4.4731812 0,-2.4706129 4.4552253,-7.344006 4.4552253,-7.344006 0,0 4.4552253,4.8733931 4.4552253,7.344006 z"
               id="drop-stroke"
               stroke-width="2.235"
               stroke="#000000" />
          </g>
          <g
             id="can">
            <path
               d="m 79.275823,44.632623 0.945093,-0.95267 c 0.388097,-0.391922 0.388097,-1.02578 -0.0015,-1.416194 l -5.955064,-5.960975 c -0.186916,-0.188424 -0.441394,-0.272838 -0.70638,-0.272838 h -9.378869 v 3.014781 h 8.005143 c 0.265738,0 0.520214,0.24872 0.707882,0.437897 l 4.968683,5.079152 c 0.390349,0.392675 1.024665,0.464276 1.415013,0.07085"
               fill="#ffffff"
               id="nozzle-fill" />
            <path
               d="m 79.275823,44.632623 0.945093,-0.95267 c 0.388097,-0.391922 0.388097,-1.02578 -0.0015,-1.416194 l -5.955064,-5.960975 c -0.186916,-0.188424 -0.441394,-0.272838 -0.70638,-0.272838 h -9.378869 v 3.014781 h 8.005143 c 0.265738,0 0.520214,0.24872 0.707882,0.437897 l 4.968683,5.079152 c 0.390349,0.392675 1.024665,0.464276 1.415013,0.07085 z"
               id="nozzle-stroke"
               stroke-width="2"
               stroke="#000000" />
            <path
               d="m 62.95491,43.580088 0.141877,-12.104345 3.028952,1.499854 c 0.269491,0.147724 0.43689,0.432621 0.433888,0.740882 l -0.06456,7.576144 c -0.003,0.309015 -0.174906,0.590897 -0.447399,0.733346 z"
               fill="#9b9b9b"
               id="attachement-fill" />
            <path
               d="m 62.95491,43.580088 0.141877,-12.104345 3.028952,1.499854 c 0.269491,0.147724 0.43689,0.432621 0.433888,0.740882 l -0.06456,7.576144 c -0.003,0.309015 -0.174906,0.590897 -0.447399,0.733346 l -3.09276,1.554119 z"
               id="attachment-stroke"
               stroke-width="2.235"
               stroke="#000000" />
            <path
               d="m 57.344179,25.310064 c -0.97512,0.97905 -2.828524,0.969252 -3.820909,-0.02713 L 38.289177,9.9874411 c -0.992386,-0.996385 -0.905308,-2.7607855 0.06906,-3.7398355 l 0.168901,-0.1695815 c 0.97512,-0.9782963 2.56654,-0.8991583 3.558925,0.097227 L 57.320157,21.470741 c 0.992386,0.996385 1.168043,2.690692 0.192923,3.669742 z m 5.630023,19.826706 0.205684,-22.755565 c -0.0015,-0.743144 -0.273244,-1.496839 -0.79571,-2.022164 L 43.748798,1.6493112 c -1.982519,-1.99050901 -5.280962,-1.94453361 -7.263481,0.045975 L 2.3568649,35.961285 c -1.98326959,1.990509 -1.76557535,5.038452 0.2169436,7.028961 L 30.81776,71.348028 c 1.982519,1.990509 5.035493,2.226415 7.018012,0.235906 L 62.173238,47.148383 c 0.526219,-0.528341 0.803216,-1.263947 0.800964,-2.011613 z"
               fill="#ff2727"
               id="red-fill" />
            <path
               d="m 62.815116,44.383466 0.05189,-6.466928 -26.635054,26.78594 c -1.192838,1.199597 -3.126501,1.199597 -4.31934,0 L 2.3541302,34.976543 2.1187213,35.213286 c -2.01112933,2.021766 -2.01112933,5.330867 0,7.352633 L 30.298599,70.905435 c 2.010378,2.022522 5.300838,2.022522 7.311215,0 L 61.993817,46.383297 c 0.527226,-0.530212 0.822803,-1.249516 0.821299,-1.999831"
               fill="#9b0000"
               id="shadow" />
            <path
               d="m 57.46286,25.429224 c -0.97512,0.97905 -2.94788,0.850168 -3.940266,-0.146217 L 38.288501,9.9867628 C 37.296115,8.9903777 37.50255,7.3458148 38.476919,6.3667648 L 38.64582,6.1971834 c 0.97512,-0.9782964 2.447183,-1.018996 3.439569,-0.022611 L 57.320233,21.470063 c 0.992385,0.996385 1.286648,2.810529 0.311527,3.789579 z m 5.657047,-2.989156 C 63.118406,21.697679 62.788111,21.002772 62.264894,20.4782 L 43.629517,1.7677167 c -1.982519,-1.990509 -5.043,-1.9437799 -7.025519,0.046729 L 2.4755458,36.080444 c -1.9832696,1.990509 -2.00353768,5.037699 -0.021019,7.028208 L 30.698478,71.467187 c 1.982519,1.990509 5.15485,2.107332 7.137369,0.116823 L 62.173313,47.148458 c 0.526219,-0.52834 0.802466,-1.264701 0.800964,-2.011613 z"
               id="black-stroke"
               stroke-width="2.235"
               stroke="#000000" />
            <path
               d="m 31.379261,48.821435 c 0.232708,0.233646 0.463163,0.373833 0.689115,0.419055 0.226702,0.04597 0.447399,0.03919 0.660589,-0.0196 0.213941,-0.05804 0.415121,-0.162799 0.602788,-0.31203 0.187668,-0.149985 0.352815,-0.295449 0.494691,-0.438651 l 3.108524,-3.121052 c 0.41437,-0.416039 0.82874,-0.682847 1.24386,-0.79967 0.413619,-0.117577 0.802466,-0.156015 1.16504,-0.117577 0.362573,0.03995 0.689865,0.134158 0.981125,0.284143 0.29126,0.149232 0.51496,0.288666 0.670348,0.419055 l 0.05855,-0.05879 c -0.129865,-0.156769 -0.272493,-0.376848 -0.427131,-0.663252 -0.156139,-0.285651 -0.253726,-0.611247 -0.29201,-0.975282 -0.03903,-0.364034 0.01276,-0.767261 0.155388,-1.20968 0.141877,-0.441666 0.453405,-0.903681 0.932332,-1.384538 l 2.953135,-2.965037 c 0.155389,-0.156015 0.307024,-0.327858 0.457158,-0.516281 0.148633,-0.189178 0.252225,-0.390415 0.310027,-0.605218 0.05855,-0.214049 0.06456,-0.434882 0.01952,-0.663252 -0.04579,-0.226862 -0.184665,-0.458246 -0.417372,-0.691892 l -1.048686,-1.053666 2.175441,-2.184208 2.466701,2.476642 c 0.220697,0.221586 0.41437,0.527587 0.583271,0.917247 0.16815,0.389661 0.264986,0.812484 0.29126,1.267716 0.02552,0.455231 -0.04279,0.933074 -0.204183,1.433528 -0.161394,0.500453 -0.463163,0.972267 -0.903055,1.413932 l -3.65276,3.667481 c -0.323538,0.324842 -0.534477,0.666266 -0.630562,1.023518 -0.09834,0.358005 -0.123861,0.69566 -0.07807,1.014474 0.04504,0.318813 0.141877,0.611246 0.29126,0.878054 0.148633,0.266055 0.301019,0.477843 0.456407,0.633858 l -1.689758,1.696568 c -0.155388,-0.156015 -0.366327,-0.309015 -0.631313,-0.458247 -0.265737,-0.149985 -0.550992,-0.253241 -0.855013,-0.312029 -0.304772,-0.05879 -0.625308,-0.04899 -0.961608,0.02939 -0.337051,0.07763 -0.653833,0.266054 -0.951849,0.565271 l -3.769113,3.784304 c -0.439893,0.441665 -0.909812,0.74465 -1.408257,0.906695 -0.499195,0.162798 -0.97512,0.230631 -1.427774,0.205005 -0.453404,-0.02563 -0.87453,-0.123606 -1.262626,-0.292434 -0.388847,-0.169581 -0.692869,-0.364035 -0.913566,-0.585621 l -2.4667,-2.476642 2.175441,-2.184963 z"
               fill="#9b0000"
               id="Fill-19" />
            <path
               d="m 36.07958,26.701084 c -0.233458,-0.234399 -0.463914,-0.373833 -0.689866,-0.419054 -0.227453,-0.04598 -0.447399,-0.03919 -0.660589,0.0196 -0.213941,0.05803 -0.41437,0.162044 -0.602037,0.31203 -0.188418,0.149985 -0.359571,0.302231 -0.51496,0.458246 l -2.953135,2.965037 c -0.478927,0.480858 -0.939838,0.792887 -1.37898,0.935336 -0.440643,0.143956 -0.842252,0.195961 -1.204825,0.156769 -0.362574,-0.03844 -0.686863,-0.136419 -0.970616,-0.292434 -0.286005,-0.156015 -0.505201,-0.299217 -0.66059,-0.429607 l -0.05855,0.05879 c 0.129115,0.156015 0.267989,0.380616 0.417372,0.67305 0.148633,0.292433 0.242467,0.621044 0.281502,0.984325 0.03903,0.364789 0,0.755203 -0.116354,1.170489 -0.117105,0.41604 -0.382091,0.832833 -0.796461,1.248873 l -3.108524,3.120298 c -0.142627,0.143202 -0.288257,0.309015 -0.436889,0.497439 -0.148633,0.188424 -0.252976,0.390414 -0.310778,0.605217 -0.05855,0.21405 -0.06531,0.434882 -0.01952,0.663252 0.04504,0.226862 0.184665,0.458247 0.418123,0.691892 l 1.048686,1.052912 -2.176192,2.184963 -2.466701,-2.476643 c -0.220697,-0.221586 -0.41437,-0.527586 -0.58327,-0.917247 -0.16815,-0.38966 -0.265738,-0.812483 -0.29126,-1.267715 -0.02552,-0.455232 0.04204,-0.933075 0.204182,-1.433528 0.161394,-0.501208 0.463163,-0.972267 0.903056,-1.414686 l 3.769113,-3.78355 c 0.298016,-0.299217 0.484932,-0.61803 0.563753,-0.955686 0.07732,-0.337655 0.08708,-0.659483 0.02852,-0.966237 -0.05855,-0.305246 -0.162144,-0.591651 -0.310777,-0.857705 -0.148633,-0.266808 -0.294263,-0.471059 -0.43689,-0.614262 l 1.690508,-1.697321 c 0.141877,0.143202 0.345309,0.289419 0.611046,0.439404 0.265737,0.149232 0.556997,0.247212 0.87453,0.29168 0.317533,0.04673 0.653833,0.02035 1.010402,-0.07763 0.355066,-0.09723 0.69587,-0.308262 1.019409,-0.633858 l 3.652759,-3.666727 c 0.439893,-0.442419 0.909812,-0.744651 1.408257,-0.906696 0.498445,-0.162798 0.974369,-0.23063 1.427774,-0.205005 0.453405,0.02563 0.87453,0.123606 1.262627,0.292434 0.388096,0.169582 0.692868,0.364035 0.913565,0.585621 l 2.466701,2.476643 -2.175441,2.184208 z"
               fill="#9b0000"
               id="Fill-21" />
          </g>
        </g>
      </g>
    </g>
  </g>
</svg>
